<svg width="193" height="58" viewBox="0 0 193 58" fill="none" xmlns="http://www.w3.org/2000/svg">
<rect x="1.54348" y="1.04348" width="189.913" height="55.3043" rx="9.3913" fill="#101010"/>
<rect x="1.54348" y="1.04348" width="189.913" height="55.3043" rx="9.3913" stroke="#999999" stroke-width="2.08696"/>
<path fill-rule="evenodd" clip-rule="evenodd" d="M42.418 18.1255C43.4389 16.8076 44.2129 14.9449 43.9329 13.0435C42.2643 13.1594 40.3139 14.227 39.1758 15.6186C38.1384 16.8794 37.2858 18.755 37.6188 20.5755C39.443 20.6325 41.3257 19.5391 42.418 18.1255ZM51.4345 36.0112C50.7044 37.6384 50.3531 38.3654 49.4127 39.8067C48.1008 41.8185 46.2511 44.3237 43.9567 44.3421C41.9203 44.3642 41.3952 43.0076 38.6306 43.0242C35.866 43.0389 35.2897 44.3678 33.2496 44.3476C30.9571 44.3273 29.2043 42.067 27.8924 40.0551C24.2222 34.4338 23.8361 27.835 26.0994 24.3249C27.7095 21.8326 30.249 20.3748 32.6349 20.3748C35.0628 20.3748 36.5906 21.7148 38.6013 21.7148C40.5517 21.7148 41.7392 20.3711 44.5477 20.3711C46.6737 20.3711 48.926 21.5363 50.5288 23.5463C45.274 26.4435 46.1248 33.992 51.4345 36.0112Z" fill="white"/>
<path d="M64.8104 19.3911H61.7244V10.2844H64.8726C65.7768 10.2844 66.5534 10.4667 67.2027 10.8313C67.8548 11.193 68.3558 11.7132 68.7056 12.3921C69.0554 13.071 69.2303 13.8832 69.2303 14.8289C69.2303 15.7775 69.0539 16.5927 68.7012 17.2745C68.3514 17.9563 67.8459 18.4796 67.1849 18.8442C66.5268 19.2088 65.7353 19.3911 64.8104 19.3911ZM63.3741 17.9637H64.7303C65.3647 17.9637 65.8939 17.8481 66.3178 17.6169C66.7417 17.3827 67.0604 17.0344 67.2738 16.5719C67.4872 16.1065 67.594 15.5255 67.594 14.8289C67.594 14.1322 67.4872 13.5542 67.2738 13.0947C67.0604 12.6322 66.7447 12.2869 66.3267 12.0586C65.9116 11.8274 65.3958 11.7118 64.7792 11.7118H63.3741V17.9637ZM73.4554 19.5245C72.7884 19.5245 72.2104 19.3778 71.7212 19.0843C71.2321 18.7908 70.8527 18.3802 70.5829 17.8526C70.3161 17.3249 70.1827 16.7083 70.1827 16.0028C70.1827 15.2972 70.3161 14.6792 70.5829 14.1485C70.8527 13.6179 71.2321 13.2058 71.7212 12.9124C72.2104 12.6189 72.7884 12.4721 73.4554 12.4721C74.1224 12.4721 74.7005 12.6189 75.1896 12.9124C75.6788 13.2058 76.0567 13.6179 76.3235 14.1485C76.5933 14.6792 76.7282 15.2972 76.7282 16.0028C76.7282 16.7083 76.5933 17.3249 76.3235 17.8526C76.0567 18.3802 75.6788 18.7908 75.1896 19.0843C74.7005 19.3778 74.1224 19.5245 73.4554 19.5245ZM73.4643 18.235C73.826 18.235 74.1284 18.1357 74.3714 17.9371C74.6145 17.7355 74.7954 17.4657 74.9139 17.1278C75.0355 16.7898 75.0962 16.4133 75.0962 15.9983C75.0962 15.5803 75.0355 15.2024 74.9139 14.8644C74.7954 14.5235 74.6145 14.2523 74.3714 14.0507C74.1284 13.8491 73.826 13.7483 73.4643 13.7483C73.0938 13.7483 72.7855 13.8491 72.5394 14.0507C72.2963 14.2523 72.114 14.5235 71.9925 14.8644C71.8739 15.2024 71.8146 15.5803 71.8146 15.9983C71.8146 16.4133 71.8739 16.7898 71.9925 17.1278C72.114 17.4657 72.2963 17.7355 72.5394 17.9371C72.7855 18.1357 73.0938 18.235 73.4643 18.235ZM79.0579 19.3911L77.128 12.5611H78.7689L79.9694 17.3634H80.0317L81.259 12.5611H82.882L84.1093 17.3368H84.176L85.3588 12.5611H87.004L85.0697 19.3911H83.3934L82.1127 14.7755H82.0193L80.7387 19.3911H79.0579ZM89.4872 15.3891V19.3911H87.8775V12.5611H89.416V13.7216H89.4961C89.6532 13.3392 89.9037 13.0354 90.2475 12.8101C90.5944 12.5848 91.0227 12.4721 91.5326 12.4721C92.004 12.4721 92.4145 12.5729 92.7643 12.7745C93.1171 12.9761 93.3898 13.2681 93.5825 13.6505C93.7782 14.0329 93.8745 14.4968 93.8716 15.0423V19.3911H92.2619V15.2913C92.2619 14.8348 92.1433 14.4776 91.9061 14.2197C91.672 13.9618 91.3473 13.8328 90.9323 13.8328C90.6507 13.8328 90.4002 13.8951 90.1808 14.0196C89.9644 14.1411 89.794 14.3175 89.6695 14.5487C89.5479 14.7799 89.4872 15.0601 89.4872 15.3891ZM96.8672 10.2844V19.3911H95.2575V10.2844H96.8672ZM101.251 19.5245C100.584 19.5245 100.006 19.3778 99.5171 19.0843C99.0279 18.7908 98.6485 18.3802 98.3787 17.8526C98.1119 17.3249 97.9785 16.7083 97.9785 16.0028C97.9785 15.2972 98.1119 14.6792 98.3787 14.1485C98.6485 13.6179 99.0279 13.2058 99.5171 12.9124C100.006 12.6189 100.584 12.4721 101.251 12.4721C101.918 12.4721 102.496 12.6189 102.985 12.9124C103.475 13.2058 103.853 13.6179 104.119 14.1485C104.389 14.6792 104.524 15.2972 104.524 16.0028C104.524 16.7083 104.389 17.3249 104.119 17.8526C103.853 18.3802 103.475 18.7908 102.985 19.0843C102.496 19.3778 101.918 19.5245 101.251 19.5245ZM101.26 18.235C101.622 18.235 101.924 18.1357 102.167 17.9371C102.41 17.7355 102.591 17.4657 102.71 17.1278C102.831 16.7898 102.892 16.4133 102.892 15.9983C102.892 15.5803 102.831 15.2024 102.71 14.8644C102.591 14.5235 102.41 14.2523 102.167 14.0507C101.924 13.8491 101.622 13.7483 101.26 13.7483C100.89 13.7483 100.581 13.8491 100.335 14.0507C100.092 14.2523 99.9098 14.5235 99.7883 14.8644C99.6697 15.2024 99.6104 15.5803 99.6104 15.9983C99.6104 16.4133 99.6697 16.7898 99.7883 17.1278C99.9098 17.4657 100.092 17.7355 100.335 17.9371C100.581 18.1357 100.89 18.235 101.26 18.235ZM107.605 19.529C107.172 19.529 106.783 19.4519 106.436 19.2977C106.092 19.1406 105.819 18.9094 105.618 18.6041C105.419 18.2987 105.32 17.9222 105.32 17.4746C105.32 17.0892 105.391 16.7706 105.533 16.5186C105.675 16.2666 105.87 16.065 106.116 15.9138C106.362 15.7627 106.639 15.6485 106.947 15.5714C107.258 15.4914 107.58 15.4336 107.912 15.398C108.312 15.3565 108.637 15.3195 108.886 15.2869C109.135 15.2513 109.316 15.1979 109.428 15.1268C109.544 15.0527 109.602 14.9385 109.602 14.7844V14.7577C109.602 14.4227 109.502 14.1633 109.304 13.9796C109.105 13.7958 108.819 13.7039 108.446 13.7039C108.051 13.7039 107.739 13.7898 107.507 13.9618C107.279 14.1337 107.125 14.3368 107.045 14.571L105.542 14.3575C105.661 13.9425 105.856 13.5957 106.129 13.317C106.402 13.0354 106.735 12.8249 107.129 12.6856C107.524 12.5433 107.959 12.4721 108.437 12.4721C108.766 12.4721 109.093 12.5107 109.419 12.5878C109.745 12.6648 110.043 12.7923 110.313 12.9702C110.583 13.1451 110.799 13.3837 110.962 13.6861C111.128 13.9884 111.211 14.3664 111.211 14.82V19.3911H109.664V18.4529H109.611C109.513 18.6426 109.375 18.8205 109.197 18.9865C109.022 19.1495 108.801 19.2814 108.535 19.3822C108.271 19.48 107.961 19.529 107.605 19.529ZM108.023 18.3462C108.346 18.3462 108.626 18.2824 108.864 18.1549C109.101 18.0245 109.283 17.8526 109.411 17.6391C109.541 17.4257 109.606 17.193 109.606 16.941V16.1362C109.556 16.1777 109.47 16.2162 109.348 16.2518C109.23 16.2874 109.096 16.3185 108.948 16.3452C108.8 16.3718 108.653 16.3956 108.508 16.4163C108.363 16.4371 108.237 16.4548 108.13 16.4697C107.89 16.5023 107.675 16.5556 107.485 16.6297C107.295 16.7039 107.146 16.8076 107.036 16.941C106.926 17.0714 106.871 17.2404 106.871 17.4479C106.871 17.7444 106.98 17.9682 107.196 18.1194C107.412 18.2706 107.688 18.3462 108.023 18.3462ZM115.114 19.5112C114.578 19.5112 114.097 19.3733 113.673 19.0976C113.25 18.8219 112.915 18.4217 112.668 17.897C112.422 17.3723 112.299 16.735 112.299 15.985C112.299 15.2261 112.424 14.5858 112.673 14.064C112.925 13.5393 113.264 13.1436 113.691 12.8768C114.118 12.607 114.594 12.4721 115.119 12.4721C115.519 12.4721 115.848 12.5403 116.106 12.6767C116.364 12.8101 116.568 12.9716 116.719 13.1614C116.871 13.3481 116.988 13.5245 117.071 13.6905H117.137V10.2844H118.751V19.3911H117.168V18.315H117.071C116.988 18.481 116.868 18.6574 116.71 18.8442C116.553 19.028 116.346 19.1851 116.088 19.3155C115.83 19.446 115.505 19.5112 115.114 19.5112ZM115.563 18.1905C115.904 18.1905 116.195 18.0986 116.435 17.9148C116.675 17.7281 116.857 17.4687 116.982 17.1367C117.106 16.8047 117.168 16.4178 117.168 15.9761C117.168 15.5344 117.106 15.1505 116.982 14.8244C116.86 14.4983 116.679 14.2449 116.439 14.064C116.202 13.8832 115.91 13.7928 115.563 13.7928C115.205 13.7928 114.905 13.8862 114.665 14.0729C114.425 14.2597 114.244 14.5176 114.123 14.8466C114.001 15.1757 113.94 15.5522 113.94 15.9761C113.94 16.403 114.001 16.7839 114.123 17.1189C114.247 17.4509 114.429 17.7132 114.669 17.9059C114.913 18.0957 115.21 18.1905 115.563 18.1905ZM126.051 19.5245C125.384 19.5245 124.806 19.3778 124.317 19.0843C123.828 18.7908 123.448 18.3802 123.179 17.8526C122.912 17.3249 122.778 16.7083 122.778 16.0028C122.778 15.2972 122.912 14.6792 123.179 14.1485C123.448 13.6179 123.828 13.2058 124.317 12.9124C124.806 12.6189 125.384 12.4721 126.051 12.4721C126.718 12.4721 127.296 12.6189 127.785 12.9124C128.274 13.2058 128.652 13.6179 128.919 14.1485C129.189 14.6792 129.324 15.2972 129.324 16.0028C129.324 16.7083 129.189 17.3249 128.919 17.8526C128.652 18.3802 128.274 18.7908 127.785 19.0843C127.296 19.3778 126.718 19.5245 126.051 19.5245ZM126.06 18.235C126.422 18.235 126.724 18.1357 126.967 17.9371C127.21 17.7355 127.391 17.4657 127.51 17.1278C127.631 16.7898 127.692 16.4133 127.692 15.9983C127.692 15.5803 127.631 15.2024 127.51 14.8644C127.391 14.5235 127.21 14.2523 126.967 14.0507C126.724 13.8491 126.422 13.7483 126.06 13.7483C125.689 13.7483 125.381 13.8491 125.135 14.0507C124.892 14.2523 124.71 14.5235 124.588 14.8644C124.47 15.2024 124.41 15.5803 124.41 15.9983C124.41 16.4133 124.47 16.7898 124.588 17.1278C124.71 17.4657 124.892 17.7355 125.135 17.9371C125.381 18.1357 125.689 18.235 126.06 18.235ZM132.049 15.3891V19.3911H130.44V12.5611H131.978V13.7216H132.058C132.215 13.3392 132.466 13.0354 132.81 12.8101C133.157 12.5848 133.585 12.4721 134.095 12.4721C134.566 12.4721 134.977 12.5729 135.327 12.7745C135.679 12.9761 135.952 13.2681 136.145 13.6505C136.34 14.0329 136.437 14.4968 136.434 15.0423V19.3911H134.824V15.2913C134.824 14.8348 134.705 14.4776 134.468 14.2197C134.234 13.9618 133.91 13.8328 133.495 13.8328C133.213 13.8328 132.962 13.8951 132.743 14.0196C132.527 14.1411 132.356 14.3175 132.232 14.5487C132.11 14.7799 132.049 15.0601 132.049 15.3891ZM144.086 12.5611V13.8061H140.159V12.5611H144.086ZM141.129 10.9247H142.738V17.3368C142.738 17.5532 142.771 17.7192 142.836 17.8348C142.904 17.9474 142.993 18.0245 143.103 18.066C143.213 18.1075 143.334 18.1283 143.468 18.1283C143.568 18.1283 143.66 18.1209 143.743 18.106C143.829 18.0912 143.895 18.0779 143.939 18.066L144.21 19.3244C144.124 19.3541 144.001 19.3867 143.841 19.4222C143.684 19.4578 143.491 19.4786 143.263 19.4845C142.86 19.4964 142.497 19.4356 142.174 19.3022C141.851 19.1658 141.594 18.9553 141.404 18.6708C141.218 18.3862 141.126 18.0304 141.129 17.6036V10.9247ZM146.938 15.3891V19.3911H145.328V10.2844H146.902V13.7216H146.982C147.143 13.3363 147.39 13.0324 147.725 12.8101C148.063 12.5848 148.493 12.4721 149.015 12.4721C149.489 12.4721 149.902 12.5714 150.255 12.7701C150.608 12.9687 150.881 13.2592 151.073 13.6416C151.269 14.024 151.367 14.4909 151.367 15.0423V19.3911H149.757V15.2913C149.757 14.8318 149.639 14.4746 149.401 14.2197C149.167 13.9618 148.838 13.8328 148.414 13.8328C148.13 13.8328 147.875 13.8951 147.649 14.0196C147.427 14.1411 147.252 14.3175 147.125 14.5487C147 14.7799 146.938 15.0601 146.938 15.3891ZM155.781 19.5245C155.096 19.5245 154.505 19.3822 154.007 19.0976C153.512 18.8101 153.131 18.404 152.864 17.8793C152.597 17.3516 152.464 16.7305 152.464 16.0161C152.464 15.3135 152.597 14.6969 152.864 14.1663C153.134 13.6327 153.51 13.2177 153.993 12.9213C154.477 12.6218 155.044 12.4721 155.696 12.4721C156.117 12.4721 156.515 12.5403 156.888 12.6767C157.265 12.8101 157.597 13.0176 157.884 13.2992C158.175 13.5808 158.403 13.9395 158.569 14.3753C158.735 14.8081 158.818 15.3239 158.818 15.9227V16.4163H153.22V15.3313H157.275C157.272 15.023 157.205 14.7488 157.075 14.5087C156.944 14.2656 156.762 14.0744 156.528 13.9351C156.297 13.7958 156.027 13.7261 155.719 13.7261C155.39 13.7261 155.101 13.8061 154.852 13.9662C154.603 14.1233 154.408 14.3308 154.269 14.5887C154.133 14.8437 154.063 15.1238 154.06 15.4292V16.3763C154.06 16.7735 154.133 17.1144 154.278 17.399C154.423 17.6806 154.626 17.897 154.887 18.0482C155.148 18.1964 155.453 18.2706 155.803 18.2706C156.037 18.2706 156.249 18.238 156.439 18.1727C156.629 18.1046 156.793 18.0052 156.933 17.8748C157.072 17.7444 157.177 17.5828 157.248 17.3901L158.751 17.5591C158.656 17.9563 158.476 18.3032 158.209 18.5996C157.945 18.8931 157.607 19.1214 157.195 19.2844C156.783 19.4445 156.312 19.5245 155.781 19.5245Z" fill="#B1B1B1"/>
<path d="M64.6169 42.8691H61.3887L67.2664 26.1735H71.0001L76.886 42.8691H73.6577L69.1985 29.5974H69.068L64.6169 42.8691ZM64.7229 36.3229H73.5273V38.7523H64.7229V36.3229ZM78.4954 47.5648V30.3474H81.3976V32.4181H81.5688C81.721 32.1137 81.9357 31.7903 82.2128 31.4479C82.49 31.1001 82.865 30.8039 83.3378 30.5594C83.8107 30.3094 84.4139 30.1844 85.1476 30.1844C86.115 30.1844 86.9873 30.4316 87.7645 30.9262C88.5471 31.4153 89.1666 32.1409 89.6232 33.1028C90.0851 34.0594 90.3161 35.2333 90.3161 36.6246C90.3161 37.9996 90.0905 39.1681 89.6395 40.13C89.1884 41.092 88.5742 41.8257 87.7971 42.3311C87.0199 42.8365 86.1395 43.0892 85.1558 43.0892C84.4384 43.0892 83.8433 42.9697 83.3704 42.7306C82.8976 42.4914 82.5172 42.2034 82.2291 41.8664C81.9465 41.524 81.7264 41.2007 81.5688 40.8963H81.4465V47.5648H78.4954ZM81.3895 36.6083C81.3895 37.4181 81.5036 38.1273 81.7319 38.736C81.9655 39.3447 82.2998 39.8202 82.7346 40.1626C83.1748 40.4996 83.7074 40.6681 84.3324 40.6681C84.9846 40.6681 85.5308 40.4941 85.971 40.1463C86.4112 39.7931 86.7427 39.3121 86.9655 38.7034C87.1938 38.0892 87.3079 37.3909 87.3079 36.6083C87.3079 35.8311 87.1965 35.1409 86.9737 34.5376C86.7509 33.9344 86.4194 33.4615 85.9791 33.1191C85.5389 32.7767 84.99 32.6056 84.3324 32.6056C83.702 32.6056 83.1666 32.7713 82.7264 33.1028C82.2862 33.4344 81.952 33.899 81.7237 34.4969C81.5009 35.0947 81.3895 35.7985 81.3895 36.6083ZM92.3841 47.5648V30.3474H95.2863V32.4181H95.4575C95.6097 32.1137 95.8244 31.7903 96.1015 31.4479C96.3787 31.1001 96.7537 30.8039 97.2265 30.5594C97.6994 30.3094 98.3026 30.1844 99.0363 30.1844C100.004 30.1844 100.876 30.4316 101.653 30.9262C102.436 31.4153 103.055 32.1409 103.512 33.1028C103.974 34.0594 104.205 35.2333 104.205 36.6246C104.205 37.9996 103.979 39.1681 103.528 40.13C103.077 41.092 102.463 41.8257 101.686 42.3311C100.909 42.8365 100.028 43.0892 99.0445 43.0892C98.3271 43.0892 97.732 42.9697 97.2591 42.7306C96.7863 42.4914 96.4059 42.2034 96.1178 41.8664C95.8352 41.524 95.6151 41.2007 95.4575 40.8963H95.3352V47.5648H92.3841ZM95.2782 36.6083C95.2782 37.4181 95.3923 38.1273 95.6205 38.736C95.8542 39.3447 96.1885 39.8202 96.6233 40.1626C97.0635 40.4996 97.5961 40.6681 98.2211 40.6681C98.8733 40.6681 99.4195 40.4941 99.8597 40.1463C100.3 39.7931 100.631 39.3121 100.854 38.7034C101.083 38.0892 101.197 37.3909 101.197 36.6083C101.197 35.8311 101.085 35.1409 100.862 34.5376C100.64 33.9344 100.308 33.4615 99.8678 33.1191C99.4276 32.7767 98.8787 32.6056 98.2211 32.6056C97.5907 32.6056 97.0553 32.7713 96.6151 33.1028C96.1749 33.4344 95.8407 33.899 95.6124 34.4969C95.3896 35.0947 95.2782 35.7985 95.2782 36.6083ZM120.712 30.7632C120.636 30.0512 120.315 29.4969 119.75 29.1001C119.19 28.7034 118.462 28.505 117.565 28.505C116.935 28.505 116.394 28.6001 115.943 28.7903C115.492 28.9806 115.147 29.2387 114.907 29.5648C114.668 29.8909 114.546 30.2632 114.541 30.6816C114.541 31.0295 114.619 31.3311 114.777 31.5865C114.94 31.842 115.16 32.0594 115.437 32.2387C115.715 32.4126 116.022 32.5594 116.359 32.6789C116.695 32.7985 117.035 32.899 117.378 32.9806L118.943 33.3719C119.573 33.5186 120.179 33.717 120.761 33.967C121.348 34.217 121.872 34.5322 122.334 34.9126C122.801 35.2931 123.171 35.7523 123.443 36.2903C123.715 36.8284 123.85 37.4588 123.85 38.1816C123.85 39.1599 123.6 40.0213 123.1 40.7659C122.6 41.505 121.878 42.0838 120.932 42.5023C119.992 42.9153 118.853 43.1219 117.516 43.1219C116.217 43.1219 115.09 42.9208 114.133 42.5186C113.182 42.1164 112.437 41.5295 111.899 40.7577C111.367 39.986 111.079 39.0458 111.035 37.9371H114.011C114.054 38.5186 114.234 39.0023 114.549 39.3882C114.864 39.774 115.274 40.0621 115.78 40.2523C116.291 40.4425 116.861 40.5376 117.492 40.5376C118.149 40.5376 118.725 40.4398 119.22 40.2441C119.72 40.0431 120.111 39.7659 120.394 39.4126C120.676 39.0539 120.82 38.6354 120.826 38.1572C120.82 37.7224 120.693 37.3637 120.443 37.0811C120.193 36.7931 119.842 36.5539 119.391 36.3637C118.945 36.1681 118.424 35.9941 117.826 35.842L115.926 35.3528C114.551 34.9996 113.465 34.4642 112.666 33.7469C111.872 33.024 111.475 32.0648 111.475 30.8691C111.475 29.8854 111.742 29.024 112.274 28.2849C112.812 27.5458 113.543 26.9724 114.467 26.5648C115.391 26.1517 116.437 25.9452 117.606 25.9452C118.791 25.9452 119.829 26.1517 120.72 26.5648C121.617 26.9724 122.32 27.5403 122.831 28.2686C123.342 28.9914 123.606 29.8229 123.622 30.7632H120.712ZM132.21 30.3474V32.63H125.011V30.3474H132.21ZM126.789 27.3474H129.74V39.1028C129.74 39.4996 129.8 39.8039 129.919 40.0159C130.044 40.2224 130.207 40.3637 130.408 40.4398C130.609 40.5159 130.832 40.5539 131.077 40.5539C131.261 40.5539 131.43 40.5403 131.582 40.5132C131.74 40.486 131.859 40.4615 131.941 40.4398L132.438 42.7469C132.281 42.8012 132.055 42.861 131.761 42.9262C131.473 42.9914 131.12 43.0295 130.702 43.0403C129.963 43.0621 129.297 42.9507 128.704 42.7061C128.112 42.4561 127.642 42.0702 127.294 41.5485C126.952 41.0267 126.783 40.3746 126.789 39.592V27.3474ZM139.546 43.1137C138.323 43.1137 137.264 42.8447 136.367 42.3066C135.47 41.7686 134.775 41.0159 134.28 40.0485C133.791 39.0811 133.546 37.9507 133.546 36.6572C133.546 35.3637 133.791 34.2306 134.28 33.2577C134.775 32.2849 135.47 31.5295 136.367 30.9914C137.264 30.4534 138.323 30.1844 139.546 30.1844C140.769 30.1844 141.829 30.4534 142.726 30.9914C143.622 31.5295 144.315 32.2849 144.804 33.2577C145.299 34.2306 145.546 35.3637 145.546 36.6572C145.546 37.9507 145.299 39.0811 144.804 40.0485C144.315 41.0159 143.622 41.7686 142.726 42.3066C141.829 42.8447 140.769 43.1137 139.546 43.1137ZM139.563 40.7496C140.226 40.7496 140.78 40.5675 141.226 40.2034C141.671 39.8338 142.003 39.3392 142.22 38.7197C142.443 38.1001 142.554 37.4099 142.554 36.649C142.554 35.8827 142.443 35.1898 142.22 34.5702C142.003 33.9452 141.671 33.4479 141.226 33.0784C140.78 32.7088 140.226 32.524 139.563 32.524C138.883 32.524 138.318 32.7088 137.867 33.0784C137.421 33.4479 137.087 33.9452 136.864 34.5702C136.647 35.1898 136.538 35.8827 136.538 36.649C136.538 37.4099 136.647 38.1001 136.864 38.7197C137.087 39.3392 137.421 39.8338 137.867 40.2034C138.318 40.5675 138.883 40.7496 139.563 40.7496ZM147.592 42.8691V30.3474H150.453V32.4344H150.584C150.812 31.7115 151.203 31.1545 151.758 30.7632C152.317 30.3664 152.956 30.1681 153.673 30.1681C153.836 30.1681 154.019 30.1762 154.22 30.1925C154.426 30.2034 154.597 30.2224 154.733 30.2496V32.9642C154.608 32.9208 154.41 32.8827 154.138 32.8501C153.872 32.8121 153.614 32.7931 153.364 32.7931C152.826 32.7931 152.342 32.9099 151.913 33.1436C151.489 33.3719 151.154 33.6898 150.91 34.0974C150.665 34.505 150.543 34.9751 150.543 35.5077V42.8691H147.592ZM161.263 43.1137C160.007 43.1137 158.923 42.8528 158.01 42.3311C157.102 41.8039 156.404 41.0594 155.915 40.0974C155.426 39.13 155.181 37.9914 155.181 36.6816C155.181 35.3936 155.426 34.2632 155.915 33.2903C156.409 32.3121 157.099 31.5512 157.985 31.0077C158.871 30.4588 159.912 30.1844 161.108 30.1844C161.879 30.1844 162.608 30.3094 163.292 30.5594C163.983 30.8039 164.591 31.1844 165.118 31.7007C165.651 32.217 166.07 32.8746 166.374 33.6735C166.678 34.467 166.83 35.4126 166.83 36.5104V37.4153H156.567V35.4262H164.002C163.996 34.861 163.874 34.3583 163.635 33.9181C163.396 33.4724 163.061 33.1219 162.632 32.8664C162.208 32.611 161.714 32.4833 161.148 32.4833C160.545 32.4833 160.015 32.63 159.559 32.9235C159.102 33.2115 158.746 33.592 158.491 34.0648C158.241 34.5322 158.113 35.0458 158.108 35.6056V37.342C158.108 38.0702 158.241 38.6952 158.507 39.217C158.773 39.7333 159.146 40.13 159.624 40.4072C160.102 40.6789 160.662 40.8148 161.303 40.8148C161.733 40.8148 162.121 40.755 162.469 40.6354C162.817 40.5104 163.118 40.3284 163.374 40.0892C163.629 39.8501 163.822 39.5539 163.953 39.2007L166.708 39.5104C166.534 40.2387 166.203 40.8746 165.714 41.4181C165.23 41.9561 164.61 42.3746 163.855 42.6735C163.099 42.967 162.235 43.1137 161.263 43.1137Z" fill="#B1B1B1"/>
</svg>
