<svg width="34" height="23" viewBox="0 0 34 23" fill="none" xmlns="http://www.w3.org/2000/svg">
<g clip-path="url(#clip0_10_308)">
<path d="M29.5436 3.65405H6.39514C4.186 3.65405 2.39514 5.44491 2.39514 7.65405V18.7252C2.39514 20.9343 4.186 22.7252 6.39514 22.7252H29.5436C31.7528 22.7252 33.5436 20.9343 33.5436 18.7252V7.65405C33.5436 5.44491 31.7528 3.65405 29.5436 3.65405Z" fill="white" fill-opacity="0.4"/>
<path d="M26.3587 0.163818H4C1.79086 0.163818 0 1.95468 0 4.16382V15.2349C0 17.4441 1.79086 19.2349 4 19.2349H26.3587C28.5678 19.2349 30.3587 17.4441 30.3587 15.2349V4.16382C30.3587 1.95468 28.5678 0.163818 26.3587 0.163818Z" fill="white"/>
<path d="M15.1794 13.7448C17.4137 13.7448 19.225 11.9335 19.225 9.69918C19.225 7.46485 17.4137 5.65356 15.1794 5.65356C12.9451 5.65356 11.1338 7.46485 11.1338 9.69918C11.1338 11.9335 12.9451 13.7448 15.1794 13.7448Z" fill="#0328EE"/>
<path d="M6.06441 8.29264C7.20455 8.29264 8.12882 7.36837 8.12882 6.22823C8.12882 5.08809 7.20455 4.16382 6.06441 4.16382C4.92427 4.16382 4 5.08809 4 6.22823C4 7.36837 4.92427 8.29264 6.06441 8.29264Z" fill="#0328EE"/>
<path d="M24.2943 15.235C25.4344 15.235 26.3587 14.3108 26.3587 13.1706C26.3587 12.0305 25.4344 11.1062 24.2943 11.1062C23.1541 11.1062 22.2299 12.0305 22.2299 13.1706C22.2299 14.3108 23.1541 15.235 24.2943 15.235Z" fill="#0328EE"/>
</g>
<defs>
<clipPath id="clip0_10_308">
<rect width="34" height="23" fill="white"/>
</clipPath>
</defs>
</svg>
