<svg width="42" height="42" viewBox="0 0 42 42" fill="none" xmlns="http://www.w3.org/2000/svg">
<g opacity="0.84992" clip-path="url(#clip0_10_422)">
<path d="M30.7177 0H11.3708C4.32049 0 0.325928 3.99456 0.325928 11.0448V30.3733C0.325928 37.4237 4.32049 41.4183 11.3708 41.4183H30.7177C37.768 41.4183 41.7441 37.4237 41.7441 30.3733V11.0448C41.7441 3.99456 37.768 0 30.7177 0Z" fill="white"/>
<path d="M11.4439 15.2605C10.5051 15.2605 9.73193 16.0335 9.73193 16.9908V31.2203C9.73193 32.1591 10.5051 32.9322 11.4439 32.9322C12.4011 32.9322 13.1743 32.1591 13.1743 31.2203V16.9908C13.1743 16.0335 12.4011 15.2605 11.4439 15.2605Z" fill="#0328EE"/>
<path d="M21.1084 8.4677C20.1696 8.4677 19.3965 9.24084 19.3965 10.1981V31.2201C19.3965 32.1589 20.1696 32.9321 21.1084 32.9321C22.0656 32.9321 22.8387 32.1589 22.8387 31.2201V10.1981C22.8387 9.24084 22.0656 8.4677 21.1084 8.4677Z" fill="#0328EE"/>
<path d="M30.6437 22.7709C29.6865 22.7709 28.9133 23.5441 28.9133 24.5013V31.2203C28.9133 32.1591 29.6865 32.9322 30.6253 32.9322C31.5825 32.9322 32.3557 32.1591 32.3557 31.2203V24.5013C32.3557 23.5441 31.5825 22.7709 30.6437 22.7709Z" fill="#0328EE"/>
</g>
<defs>
<clipPath id="clip0_10_422">
<rect width="42" height="42" fill="white"/>
</clipPath>
</defs>
</svg>
