<svg width="42" height="41" viewBox="0 0 42 41" fill="none" xmlns="http://www.w3.org/2000/svg">
<g opacity="0.84992" clip-path="url(#clip0_10_404)">
<path d="M2.75124 8.5122H26.5484C27.6493 8.5122 28.5429 9.40519 28.5429 10.5055C28.5429 11.6057 27.6493 12.4988 26.5484 12.4988H2.75124C1.65033 12.4988 0.756836 11.6057 0.756836 10.5055C0.756836 9.40519 1.65033 8.5122 2.75124 8.5122Z" fill="white"/>
<mask id="mask0_10_404" style="mask-type:alpha" maskUnits="userSpaceOnUse" x="24" y="0" width="18" height="22">
<path fill-rule="evenodd" clip-rule="evenodd" d="M24.4186 21.4653V0H41.5797V21.4653H24.4186Z" fill="white"/>
</mask>
<g mask="url(#mask0_10_404)">
<path d="M25.7655 0.183231C26.0169 0.183231 26.2647 0.25323 26.4838 0.389641L40.7361 9.36584C41.1275 9.61353 41.3665 10.0425 41.3665 10.5055C41.3665 10.9686 41.1275 11.3977 40.7361 11.6453L26.4838 20.6215C26.069 20.8818 25.5446 20.898 25.1154 20.6592C24.6844 20.4223 24.4186 19.9718 24.4186 19.4818V1.52939C24.4186 1.03938 24.6844 0.588874 25.1154 0.351949C25.3183 0.238871 25.5428 0.183231 25.7655 0.183231Z" fill="white"/>
</g>
<path d="M39.3188 32.059H15.5216C14.4206 32.059 13.5272 31.166 13.5272 30.0657C13.5272 28.9653 14.4206 28.0724 15.5216 28.0724H39.3188C40.4197 28.0724 41.3132 28.9653 41.3132 30.0657C41.3132 31.166 40.4197 32.059 39.3188 32.059Z" fill="white"/>
<mask id="mask1_10_404" style="mask-type:alpha" maskUnits="userSpaceOnUse" x="0" y="19" width="18" height="22">
<path fill-rule="evenodd" clip-rule="evenodd" d="M17.5156 19.1058V40.5711H0.354492V19.1058H17.5156Z" fill="white"/>
</mask>
<g mask="url(#mask1_10_404)">
<path d="M16.1687 40.3878C15.9173 40.3878 15.6695 40.3178 15.4504 40.1815L1.19811 31.2053C0.806605 30.9575 0.567749 30.5286 0.567749 30.0655C0.567749 29.6025 0.806605 29.1735 1.19811 28.9258L15.4504 19.9496C15.8652 19.6893 16.3896 19.6732 16.8188 19.9118C17.2498 20.1488 17.5156 20.5993 17.5156 21.0893V39.0418C17.5156 39.5317 17.2498 39.9822 16.8188 40.2191C16.6158 40.3322 16.3914 40.3878 16.1687 40.3878Z" fill="white"/>
</g>
</g>
<defs>
<clipPath id="clip0_10_404">
<rect width="42" height="41" fill="white"/>
</clipPath>
</defs>
</svg>
